%TF.GenerationSoftware,KiCad,Pcbnew,5.1.9-73d0e3b20d~88~ubuntu18.04.1*%
%TF.CreationDate,2021-02-09T13:12:28+05:30*%
%TF.ProjectId,temperature_sensor_atmega328,74656d70-6572-4617-9475-72655f73656e,rev?*%
%TF.SameCoordinates,Original*%
%TF.FileFunction,Legend,Top*%
%TF.FilePolarity,Positive*%
%FSLAX46Y46*%
G04 Gerber Fmt 4.6, Leading zero omitted, Abs format (unit mm)*
G04 Created by KiCad (PCBNEW 5.1.9-73d0e3b20d~88~ubuntu18.04.1) date 2021-02-09 13:12:28*
%MOMM*%
%LPD*%
G01*
G04 APERTURE LIST*
%ADD10C,0.120000*%
%ADD11C,0.150000*%
G04 APERTURE END LIST*
D10*
%TO.C,U1*%
X141080000Y-55870000D02*
G75*
G02*
X139080000Y-55870000I-1000000J0D01*
G01*
X139080000Y-55870000D02*
X137430000Y-55870000D01*
X137430000Y-55870000D02*
X137430000Y-91550000D01*
X137430000Y-91550000D02*
X142730000Y-91550000D01*
X142730000Y-91550000D02*
X142730000Y-55870000D01*
X142730000Y-55870000D02*
X141080000Y-55870000D01*
X134940000Y-55810000D02*
X134940000Y-91610000D01*
X134940000Y-91610000D02*
X145220000Y-91610000D01*
X145220000Y-91610000D02*
X145220000Y-55810000D01*
X145220000Y-55810000D02*
X134940000Y-55810000D01*
%TO.C,R1*%
X130160000Y-69840000D02*
X134000000Y-69840000D01*
X134000000Y-69840000D02*
X134000000Y-59700000D01*
X134000000Y-59700000D02*
X130160000Y-59700000D01*
X130160000Y-59700000D02*
X130160000Y-69840000D01*
X132080000Y-70950000D02*
X132080000Y-69840000D01*
X132080000Y-58590000D02*
X132080000Y-59700000D01*
%TO.C,Y1*%
X128755000Y-82535000D02*
G75*
G03*
X128755000Y-77485000I0J2525000D01*
G01*
X122505000Y-82535000D02*
G75*
G02*
X122505000Y-77485000I0J2525000D01*
G01*
X122505000Y-77485000D02*
X128755000Y-77485000D01*
X122505000Y-82535000D02*
X128755000Y-82535000D01*
%TO.C,C2*%
X129640000Y-86240000D02*
X129640000Y-91480000D01*
X126900000Y-86240000D02*
X126900000Y-91480000D01*
X129640000Y-86240000D02*
X129325000Y-86240000D01*
X127215000Y-86240000D02*
X126900000Y-86240000D01*
X129640000Y-91480000D02*
X129325000Y-91480000D01*
X127215000Y-91480000D02*
X126900000Y-91480000D01*
%TO.C,C1*%
X124560000Y-86240000D02*
X124560000Y-91480000D01*
X121820000Y-86240000D02*
X121820000Y-91480000D01*
X124560000Y-86240000D02*
X124245000Y-86240000D01*
X122135000Y-86240000D02*
X121820000Y-86240000D01*
X124560000Y-91480000D02*
X124245000Y-91480000D01*
X122135000Y-91480000D02*
X121820000Y-91480000D01*
%TO.C,U1*%
D11*
X139318095Y-54322380D02*
X139318095Y-55131904D01*
X139365714Y-55227142D01*
X139413333Y-55274761D01*
X139508571Y-55322380D01*
X139699047Y-55322380D01*
X139794285Y-55274761D01*
X139841904Y-55227142D01*
X139889523Y-55131904D01*
X139889523Y-54322380D01*
X140889523Y-55322380D02*
X140318095Y-55322380D01*
X140603809Y-55322380D02*
X140603809Y-54322380D01*
X140508571Y-54465238D01*
X140413333Y-54560476D01*
X140318095Y-54608095D01*
%TO.C,R1*%
X129612380Y-64936666D02*
X129136190Y-65270000D01*
X129612380Y-65508095D02*
X128612380Y-65508095D01*
X128612380Y-65127142D01*
X128660000Y-65031904D01*
X128707619Y-64984285D01*
X128802857Y-64936666D01*
X128945714Y-64936666D01*
X129040952Y-64984285D01*
X129088571Y-65031904D01*
X129136190Y-65127142D01*
X129136190Y-65508095D01*
X129612380Y-63984285D02*
X129612380Y-64555714D01*
X129612380Y-64270000D02*
X128612380Y-64270000D01*
X128755238Y-64365238D01*
X128850476Y-64460476D01*
X128898095Y-64555714D01*
%TO.C,Y1*%
X125153809Y-76461190D02*
X125153809Y-76937380D01*
X124820476Y-75937380D02*
X125153809Y-76461190D01*
X125487142Y-75937380D01*
X126344285Y-76937380D02*
X125772857Y-76937380D01*
X126058571Y-76937380D02*
X126058571Y-75937380D01*
X125963333Y-76080238D01*
X125868095Y-76175476D01*
X125772857Y-76223095D01*
%TO.C,C2*%
X131127142Y-89026666D02*
X131174761Y-89074285D01*
X131222380Y-89217142D01*
X131222380Y-89312380D01*
X131174761Y-89455238D01*
X131079523Y-89550476D01*
X130984285Y-89598095D01*
X130793809Y-89645714D01*
X130650952Y-89645714D01*
X130460476Y-89598095D01*
X130365238Y-89550476D01*
X130270000Y-89455238D01*
X130222380Y-89312380D01*
X130222380Y-89217142D01*
X130270000Y-89074285D01*
X130317619Y-89026666D01*
X130317619Y-88645714D02*
X130270000Y-88598095D01*
X130222380Y-88502857D01*
X130222380Y-88264761D01*
X130270000Y-88169523D01*
X130317619Y-88121904D01*
X130412857Y-88074285D01*
X130508095Y-88074285D01*
X130650952Y-88121904D01*
X131222380Y-88693333D01*
X131222380Y-88074285D01*
%TO.C,C1*%
X126047142Y-89026666D02*
X126094761Y-89074285D01*
X126142380Y-89217142D01*
X126142380Y-89312380D01*
X126094761Y-89455238D01*
X125999523Y-89550476D01*
X125904285Y-89598095D01*
X125713809Y-89645714D01*
X125570952Y-89645714D01*
X125380476Y-89598095D01*
X125285238Y-89550476D01*
X125190000Y-89455238D01*
X125142380Y-89312380D01*
X125142380Y-89217142D01*
X125190000Y-89074285D01*
X125237619Y-89026666D01*
X126142380Y-88074285D02*
X126142380Y-88645714D01*
X126142380Y-88360000D02*
X125142380Y-88360000D01*
X125285238Y-88455238D01*
X125380476Y-88550476D01*
X125428095Y-88645714D01*
%TD*%
M02*
